<svg width="109" height="333" viewBox="0 0 109 333" fill="none" xmlns="http://www.w3.org/2000/svg">
<path d="M-0.000543557 323.5L14.9995 332.16L14.9995 314.84L-0.000543557 323.5ZM106.999 2.00004L108.499 2.00004L108.499 0.500045L106.999 0.500044L106.999 2.00004ZM106.999 323.5L106.999 325L108.499 325L108.499 323.5L106.999 323.5ZM10.0307 325L16.7182 325L16.7182 322L10.0307 322L10.0307 325ZM23.4057 325L30.0932 325L30.0932 322L23.4057 322L23.4057 325ZM36.7807 325L43.4682 325L43.4682 322L36.7807 322L36.7807 325ZM50.1557 325L56.8431 325L56.8431 322L50.1557 322L50.1557 325ZM63.5306 325L70.2181 325L70.2181 322L63.5306 322L63.5306 325ZM76.9056 325L83.5931 325L83.5931 322L76.9056 322L76.9056 325ZM90.2806 325L96.9681 325L96.9681 322L90.2806 322L90.2806 325ZM103.656 325L106.999 325L106.999 322L103.656 322L103.656 325ZM108.499 323.5L108.499 320.006L105.499 320.006L105.499 323.5L108.499 323.5ZM108.499 313.016L108.499 306.027L105.499 306.027L105.499 313.016L108.499 313.016ZM108.499 299.038L108.499 292.049L105.499 292.049L105.499 299.038L108.499 299.038ZM108.499 285.06L108.499 278.071L105.499 278.071L105.499 285.06L108.499 285.06ZM108.499 271.082L108.499 264.093L105.499 264.093L105.499 271.082L108.499 271.082ZM108.499 257.103L108.499 250.114L105.499 250.114L105.499 257.103L108.499 257.103ZM108.499 243.125L108.499 236.136L105.499 236.136L105.499 243.125L108.499 243.125ZM108.499 229.147L108.499 222.158L105.499 222.158L105.499 229.147L108.499 229.147ZM108.499 215.169L108.499 208.179L105.499 208.179L105.499 215.169L108.499 215.169ZM108.499 201.19L108.499 194.201L105.499 194.201L105.499 201.19L108.499 201.19ZM108.499 187.212L108.499 180.223L105.499 180.223L105.499 187.212L108.499 187.212ZM108.499 173.234L108.499 166.245L105.499 166.245L105.499 173.234L108.499 173.234ZM108.499 159.255L108.499 152.266L105.499 152.266L105.499 159.255L108.499 159.255ZM108.499 145.277L108.499 138.288L105.499 138.288L105.499 145.277L108.499 145.277ZM108.499 131.299L108.499 124.31L105.499 124.31L105.499 131.299L108.499 131.299ZM108.499 117.321L108.499 110.332L105.499 110.332L105.499 117.321L108.499 117.321ZM108.499 103.342L108.499 96.3533L105.499 96.3533L105.499 103.342L108.499 103.342ZM108.499 89.3641L108.499 82.375L105.499 82.375L105.499 89.3641L108.499 89.3641ZM108.499 75.3858L108.499 68.3967L105.499 68.3967L105.499 75.3858L108.499 75.3858ZM108.499 61.4076L108.499 54.4184L105.499 54.4184L105.499 61.4076L108.499 61.4076ZM108.499 47.4293L108.499 40.4402L105.499 40.4402L105.499 47.4293L108.499 47.4293ZM108.499 33.451L108.499 26.4619L105.499 26.4619L105.499 33.451L108.499 33.451ZM108.499 19.4728L108.499 12.4836L105.499 12.4836L105.499 19.4728L108.499 19.4728ZM108.499 5.4945L108.499 2.00004L105.499 2.00004L105.499 5.49449L108.499 5.4945ZM106.999 0.500044L103.124 0.500043L103.124 3.50004L106.999 3.50004L106.999 0.500044ZM95.3744 0.50004L87.6244 0.500036L87.6244 3.50004L95.3744 3.50004L95.3744 0.50004ZM79.8744 0.500033L72.1245 0.50003L72.1245 3.50003L79.8744 3.50003L79.8744 0.500033ZM64.3745 0.500027L56.6245 0.500024L56.6245 3.50002L64.3745 3.50003L64.3745 0.500027ZM48.8745 0.500021L44.9995 0.500019L44.9995 3.50002L48.8745 3.50002L48.8745 0.500021Z" fill="#696969"/>
</svg>
